<?xml version="1.0" standalone="no"?>
<!DOCTYPE svg PUBLIC "-//W3C//DTD SVG 20010904//EN"
 "http://www.w3.org/TR/2001/REC-SVG-20010904/DTD/svg10.dtd">
<svg version="1.0" xmlns="http://www.w3.org/2000/svg"
 width="512.000000pt" height="512.000000pt" viewBox="0 0 512.000000 512.000000"
 preserveAspectRatio="xMidYMid meet">

<g transform="translate(0.000000,512.000000) scale(0.100000,-0.100000)"
fill="#000000" stroke="none">
<path d="M681 4365 c-110 -34 -218 -149 -241 -258 -8 -36 -10 -252 -8 -727 l3
-675 27 -57 c37 -79 98 -142 177 -181 l65 -32 273 -3 273 -3 0 -223 c0 -211 1
-225 21 -250 15 -19 29 -26 57 -26 34 0 51 15 287 250 l251 250 531 0 532 0
27 23 c33 28 37 76 9 107 -18 20 -30 20 -593 20 l-576 0 -198 -197 -198 -197
0 175 c0 135 -3 180 -14 195 -14 18 -32 19 -328 24 -278 5 -317 7 -350 24 -50
24 -104 86 -117 133 -7 25 -11 257 -11 678 l0 640 24 51 c25 54 69 94 125 113
49 16 3613 16 3662 0 56 -19 100 -59 125 -113 l24 -51 0 -640 c0 -424 -4 -653
-11 -679 -13 -48 -80 -122 -122 -135 -18 -5 -51 -13 -74 -16 -77 -12 -107 -82
-57 -132 24 -24 30 -25 87 -19 126 13 240 95 295 214 l27 57 0 705 0 705 -28
57 c-36 74 -101 139 -175 175 l-57 28 -1850 2 c-1548 1 -1857 0 -1894 -12z"/>
<path d="M1245 3773 c-27 -7 -55 -33 -66 -61 -5 -14 -4 -53 2 -98 7 -41 9 -77
7 -80 -3 -2 -37 9 -76 26 -39 16 -83 30 -97 30 -40 0 -85 -50 -85 -94 0 -57
32 -83 125 -102 44 -9 81 -17 83 -19 2 -1 -22 -29 -52 -62 -30 -33 -58 -71
-61 -86 -16 -64 44 -125 111 -113 37 8 58 30 100 110 16 31 31 56 34 56 3 0
21 -28 39 -62 45 -83 57 -96 96 -104 65 -12 126 50 111 112 -4 15 -32 54 -62
88 -61 67 -61 67 31 81 59 8 101 28 115 54 32 60 -15 143 -81 143 -20 0 -55
-10 -78 -21 -23 -12 -53 -26 -67 -31 l-26 -10 7 88 c8 103 0 127 -50 148 -19
8 -36 13 -37 13 -2 -1 -12 -4 -23 -6z"/>
<path d="M2100 3773 c-24 -9 -52 -36 -61 -61 -5 -13 -4 -54 2 -98 6 -42 8 -78
6 -80 -2 -2 -36 9 -75 26 -89 38 -116 38 -153 1 -37 -37 -39 -88 -6 -126 17
-20 40 -29 104 -42 l82 -16 -28 -36 c-16 -20 -40 -47 -54 -60 -73 -67 -18
-185 78 -167 39 8 52 22 96 103 19 35 36 63 39 63 3 0 20 -28 39 -63 44 -81
57 -95 96 -103 65 -12 126 50 111 111 -3 13 -31 52 -61 86 -31 34 -54 64 -52
66 2 1 30 8 63 13 84 15 113 29 129 61 22 41 18 73 -10 108 -40 46 -69 46
-178 -3 l-59 -26 7 88 c8 103 0 127 -50 148 -37 15 -42 15 -65 7z"/>
<path d="M2960 3773 c-57 -22 -74 -66 -60 -161 7 -40 9 -76 7 -79 -3 -2 -37 9
-75 26 -86 38 -111 39 -151 5 -25 -21 -31 -34 -31 -64 0 -63 30 -88 128 -107
94 -18 93 -5 4 -105 -45 -51 -52 -80 -27 -127 26 -52 111 -65 148 -23 8 9 30
45 48 79 19 35 36 63 39 63 3 0 18 -25 34 -56 41 -78 62 -101 97 -109 43 -10
85 11 104 52 23 48 14 74 -51 144 -31 33 -54 63 -51 65 2 2 30 9 63 14 84 15
113 29 129 61 22 42 18 75 -13 110 -36 40 -75 40 -164 0 -37 -17 -69 -31 -71
-31 -1 0 1 36 6 79 11 92 5 125 -26 145 -27 18 -67 27 -87 19z"/>
<path d="M3811 3767 c-13 -6 -33 -24 -44 -38 -18 -25 -18 -33 -8 -110 6 -45 9
-84 7 -86 -2 -3 -36 9 -74 26 -86 38 -111 39 -151 5 -26 -21 -31 -33 -31 -69
0 -62 34 -88 134 -104 l76 -13 -60 -69 c-70 -81 -78 -122 -36 -164 62 -62 123
-40 181 64 22 39 42 71 45 71 3 0 20 -29 38 -64 40 -76 58 -95 104 -102 27 -5
40 -1 65 20 60 50 52 101 -29 183 -29 29 -49 55 -47 58 3 3 32 10 65 15 85 15
113 29 130 63 32 61 -11 139 -78 139 -18 0 -63 -14 -100 -31 -37 -17 -69 -31
-71 -31 -1 0 2 38 7 85 11 100 1 130 -51 152 -39 16 -42 16 -72 0z"/>
<path d="M3483 2861 c-133 -38 -249 -138 -309 -266 -40 -83 -54 -167 -54 -325
l0 -115 -44 -42 c-279 -263 -329 -707 -115 -1020 207 -303 591 -427 931 -303
104 38 187 90 270 168 170 160 250 343 251 572 1 226 -78 418 -235 572 l-58
58 0 128 c0 71 -5 155 -11 188 -33 182 -183 341 -364 389 -77 20 -184 18 -262
-4z m211 -136 c98 -16 199 -96 245 -194 22 -48 26 -72 29 -168 l4 -111 -62 24
c-177 72 -404 72 -583 0 l-59 -25 4 112 c4 84 10 124 26 160 28 62 104 143
164 173 48 24 136 44 173 38 11 -1 38 -6 59 -9z m12 -546 c213 -29 397 -161
493 -352 100 -198 92 -435 -21 -624 -73 -123 -221 -240 -358 -284 -92 -30
-246 -36 -342 -15 -223 50 -408 224 -480 451 -34 106 -31 271 6 380 91 264
321 438 603 454 12 0 56 -4 99 -10z"/>
<path d="M3390 1950 c-107 -37 -200 -76 -206 -85 -34 -46 -24 -317 17 -465 44
-159 130 -274 250 -334 104 -52 162 -62 235 -41 140 40 254 134 313 259 55
113 74 220 75 403 1 150 -1 164 -19 182 -25 24 -395 151 -438 150 -18 0 -120
-31 -227 -69z m396 -132 l147 -51 -6 -126 c-10 -241 -78 -386 -209 -450 -74
-36 -107 -37 -175 -6 -148 66 -217 205 -230 461 l-6 121 144 50 c79 28 154 51
166 52 12 0 88 -22 169 -51z"/>
<path d="M3658 1623 c-53 -53 -58 -56 -75 -41 -45 39 -103 26 -123 -28 -13
-33 5 -68 64 -122 69 -64 82 -60 198 56 61 61 98 106 98 119 0 35 -38 73 -73
73 -26 0 -44 -11 -89 -57z"/>
</g>
</svg>
